HIERARCHY
ROOT Hips
{
	OFFSET 190.886993 90.533302 318.949097
	CHANNELS 6 Xposition Yposition Zposition Zrotation Yrotation Xrotation 
	JOINT LeftUpLeg
	{
		OFFSET 0.103459 1.857839 10.548500
		CHANNELS 3 Zrotation Yrotation Xrotation
		JOINT LeftLeg
		{
			OFFSET 43.500004 -0.000053 -0.000011
			CHANNELS 3 Zrotation Yrotation Xrotation
			JOINT LeftFoot
			{
				OFFSET 42.372192 0.000015 -0.000008
				CHANNELS 3 Zrotation Yrotation Xrotation
				JOINT LeftToe
				{
					OFFSET 17.300007 0.000002 0.000013
					CHANNELS 3 Zrotation Yrotation Xrotation
					End Site
					{
						OFFSET 0.000000 0.000000 0.000000
					}
				}
			}
		}
	}
	JOINT RightUpLeg
	{
		OFFSET 0.103460 1.857826 -10.548500
		CHANNELS 3 Zrotation Yrotation Xrotation
		JOINT RightLeg
		{
			OFFSET 43.500046 -0.000019 0.000011
			CHANNELS 3 Zrotation Yrotation Xrotation
			JOINT RightFoot
			{
				OFFSET 42.372261 0.000004 0.000012
				CHANNELS 3 Zrotation Yrotation Xrotation
				JOINT RightToe
				{
					OFFSET 17.299995 -0.000004 0.000006
					CHANNELS 3 Zrotation Yrotation Xrotation
					End Site
					{
						OFFSET 0.000000 0.000000 0.000000
					}
				}
			}
		}
	}
	JOINT Spine
	{
		OFFSET 6.901963 -2.603745 -0.000005
		CHANNELS 3 Zrotation Yrotation Xrotation
		JOINT Spine1
		{
			OFFSET 12.588102 0.000012 0.000012
			CHANNELS 3 Zrotation Yrotation Xrotation
			JOINT Spine2
			{
				OFFSET 12.343202 0.000010 -0.000009
				CHANNELS 3 Zrotation Yrotation Xrotation
				JOINT Neck
				{
					OFFSET 25.832901 -0.000008 0.000006
					CHANNELS 3 Zrotation Yrotation Xrotation
					JOINT Head
					{
						OFFSET 11.766603 0.000007 -0.000001
						CHANNELS 3 Zrotation Yrotation Xrotation
						End Site
						{
							OFFSET 0.000000 0.000000 0.000000
						}
					}
				}
				JOINT LeftShoulder
				{
					OFFSET 19.745903 -1.480391 6.000108
					CHANNELS 3 Zrotation Yrotation Xrotation
					JOINT LeftArm
					{
						OFFSET 11.284125 -0.000031 -0.000021
						CHANNELS 3 Zrotation Yrotation Xrotation
						JOINT LeftForeArm
						{
							OFFSET 33.000046 0.000024 0.000034
							CHANNELS 3 Zrotation Yrotation Xrotation
							JOINT LeftHand
							{
								OFFSET 25.200014 0.000020 0.000007
								CHANNELS 3 Zrotation Yrotation Xrotation
								End Site
								{
									OFFSET 0.000000 0.000000 0.000000
								}
							}
						}
					}
				}
				JOINT RightShoulder
				{
					OFFSET 19.746098 -1.480371 -6.000075
					CHANNELS 3 Zrotation Yrotation Xrotation
					JOINT RightArm
					{
						OFFSET 11.284128 -0.000021 -0.000009
						CHANNELS 3 Zrotation Yrotation Xrotation
						JOINT RightForeArm
						{
							OFFSET 33.000095 0.000034 0.000006
							CHANNELS 3 Zrotation Yrotation Xrotation
							JOINT RightHand
							{
								OFFSET 25.199781 0.000147 0.000427
								CHANNELS 3 Zrotation Yrotation Xrotation
								End Site
								{
									OFFSET 0.000000 0.000000 0.000000
								}
							}
						}
					}
				}
			}
		}
	}
}
MOTION
Frames: 13
Frame Time: 0.033333
56.162819 82.801804 -91.540497 88.032293 -4.418866 76.084298 174.700830 -4.706391 175.984728 -79.251675 2.691129 -4.442209 73.524432 1.248119 -5.969891 21.454555 0.003090 0.000001 136.543555 -0.940000 -176.622094 -47.646700 -2.214149 3.591540 82.222610 -1.005601 6.670239 21.454555 -0.003113 -0.000017 6.809954 1.028131 -0.305873 3.602406 2.065113 -0.580106 3.284111 2.061713 -0.592576 8.926614 -1.435127 -1.019669 -20.915424 -6.678648 1.418899 -174.216173 -85.720165 -7.447146 -26.395348 33.163290 -39.151392 -110.844107 2.509889 3.051137 -4.138897 -17.315962 1.569694 -167.842022 82.469227 13.844998 -12.603108 -19.654537 40.428351 -85.742349 5.098264 -2.514086 1.050010 7.124771 12.286555 
54.065109 80.956093 -85.664330 85.253349 -1.849658 76.993007 172.144208 -8.398410 174.116084 -89.212714 3.389615 -5.425557 78.366380 2.979618 -2.781629 21.454555 0.003093 -0.000007 139.402139 -2.210407 -172.708191 -56.282961 -3.399885 3.465326 88.601904 -1.546101 4.819515 21.454557 -0.003121 -0.000020 7.557643 1.727573 -0.156947 5.101131 3.460247 -0.238221 4.782405 3.458870 -0.259119 5.918712 -3.070031 -0.427159 -19.647410 -7.745084 2.065142 -161.349695 -84.309799 -20.418231 -26.641513 39.770201 -35.130713 -104.110094 0.829744 2.874021 -3.839264 -12.897078 6.028401 -166.172000 81.423040 15.538967 -8.329928 -21.219477 32.327005 -77.722833 10.298604 -2.526512 0.289496 10.520455 10.352986 
52.233181 80.162453 -80.030823 84.817159 -1.385728 79.445099 165.446784 -9.083700 174.550019 -95.518679 3.441607 -7.252985 81.864551 4.562279 -1.528216 21.454550 0.003093 0.000000 141.940757 -1.344995 -170.285796 -61.471224 -3.818629 3.910560 95.304785 -2.008322 5.539824 21.454557 -0.003110 -0.000017 7.586772 1.913372 -0.320989 5.154224 3.838981 -0.557288 4.835363 3.835681 -0.580487 4.846617 -4.398274 0.387278 -21.039368 -7.409987 2.616002 -160.475868 -82.487983 -21.323330 -26.505700 46.367193 -29.615755 -94.335192 -2.085409 2.643608 -3.982651 -12.853410 11.263283 -171.834008 79.537396 9.786974 -4.478150 -25.875656 26.847887 -69.382605 13.998753 -2.432056 4.254229 13.682664 11.114363 
50.950821 80.235046 -74.969048 86.232989 -1.548473 82.440889 156.827605 -7.271299 174.841764 -97.675865 3.041142 -7.684721 83.563540 5.145971 -0.226536 21.454550 0.003096 -0.000004 144.811936 1.235696 -168.468419 -63.760922 -3.930097 4.304914 100.211600 -2.448300 5.724238 21.454562 -0.003111 -0.000018 7.406050 1.558374 -0.418065 4.790469 3.132528 -0.772025 4.471882 3.127941 -0.790945 3.830586 -3.215061 0.611883 -21.549353 -8.852613 3.661971 -164.466147 -82.876655 -17.282289 -26.102688 52.047394 -14.839776 -81.382476 -13.030240 2.839071 -1.842231 -14.711203 12.741632 -172.207019 77.058276 9.390995 -2.000717 -32.995008 24.669402 -60.728851 15.378430 -2.184296 3.918912 15.304031 12.470696 
49.938782 81.208672 -69.838821 86.696534 -1.603625 84.205407 149.935111 -6.316895 173.703704 -95.069294 2.754140 -7.339713 84.004756 4.871695 -0.428920 21.454555 0.003090 0.000003 149.733811 1.986494 -167.535880 -62.199138 -3.579962 4.710726 102.812003 -2.795870 6.375848 21.454560 -0.003095 -0.000017 7.346081 1.391880 -0.236277 4.675591 2.792024 -0.416735 4.357098 2.789595 -0.433600 2.329711 -3.170435 1.121704 -21.259256 -9.195862 4.269947 -163.426783 -82.669229 -18.335395 -25.065336 56.867284 -2.081957 -67.748373 -19.635829 2.724072 -0.294148 -15.178680 7.687906 -172.136982 74.919901 9.448943 -0.312497 -39.421028 20.778270 -53.507483 15.679982 -1.943114 6.731882 16.887083 16.456776 
49.309589 82.635307 -64.586021 87.096066 -1.800642 85.373512 144.648380 -5.106796 172.626652 -88.237397 2.016354 -6.927813 84.350172 4.383412 -1.594106 21.454557 0.003096 -0.000001 155.334061 1.910398 -166.517171 -58.441715 -4.257323 5.057033 103.719913 -2.991864 7.712790 21.454562 -0.003093 -0.000015 7.281829 1.277784 -0.067593 4.550982 2.557146 -0.085325 4.232536 2.556723 -0.100779 0.862822 -4.315011 1.779609 -21.821206 -8.434419 4.396686 -162.546071 -81.123646 -19.240914 -20.088488 58.837729 11.506893 -56.496108 -20.831611 2.367451 1.411978 -15.350065 3.874231 -174.801999 74.107013 6.709948 1.035113 -45.122740 13.004852 -46.734617 16.255145 -1.760495 8.044174 16.100108 21.064875 
48.851200 84.462051 -59.321590 87.248864 -2.611756 86.304290 140.892924 -3.814611 171.757387 -77.469529 1.649935 -6.016273 83.829384 3.488481 -3.010242 21.454553 0.003080 -0.000002 161.143301 1.441094 -165.347528 -52.467304 -4.844643 4.916937 102.833006 -2.780304 8.847235 21.454558 -0.003109 -0.000016 7.077971 1.180051 0.152800 4.147520 2.353856 0.347409 3.829150 2.356035 0.333195 -0.831211 -4.697256 2.062833 -21.757486 -7.670949 4.209400 -159.925901 -80.606355 -21.905704 -14.224703 60.397580 23.828312 -47.328853 -19.253002 1.948403 3.346857 -13.114020 0.862246 -178.733019 74.126288 2.677013 1.738962 -50.797579 3.636014 -40.999706 16.374841 -1.602151 10.121359 13.301595 23.012359 
48.568008 86.503990 -53.900021 87.136787 -3.617612 86.582319 139.269647 -2.944194 170.367485 -63.363166 1.846922 -4.480526 81.557930 2.473212 -2.643157 21.454557 0.003092 0.000001 167.073271 0.744203 -165.336654 -45.272294 -4.522847 4.552730 99.432029 -2.244229 9.742709 21.454558 -0.003103 -0.000018 6.803209 1.108022 0.543645 3.604993 2.198763 1.121276 3.286704 2.205616 1.107990 -2.100071 -5.146105 1.876740 -21.749532 -6.362528 3.310842 -156.222723 -80.255693 -25.671409 -8.373908 61.160273 34.773005 -40.065121 -15.773810 1.509961 6.178121 -11.879509 -0.777771 176.484029 73.880695 -2.233999 1.624681 -54.953936 -4.962931 -37.040628 15.313327 -1.430873 9.811778 8.297506 24.113172 
48.495609 87.791649 -48.083469 86.343584 -4.625864 85.898412 139.186783 -2.826204 169.609716 -48.000917 1.980565 -3.425992 80.397467 1.515741 -3.558351 21.454551 0.003087 -0.000000 172.591722 -0.293603 -165.149357 -38.946971 -4.628237 3.487898 95.225111 -1.105916 10.530170 21.454558 -0.003102 -0.000016 6.521851 1.195803 1.194219 3.056446 2.360162 2.419542 2.738363 2.374858 2.405261 -4.583831 -6.171052 1.739157 -19.929879 -4.846426 2.064896 -153.576954 -79.945015 -28.365460 -0.141697 61.363089 45.225305 -36.549063 -12.837916 1.230795 8.618886 -8.320001 -0.866587 171.484999 74.183299 -7.348995 1.055930 -57.737843 -15.715686 -36.158936 14.758244 -1.373635 8.943895 3.054977 20.763374 
48.578732 88.760971 -42.156181 86.231049 -5.589385 84.710117 140.246446 -1.976397 169.753560 -32.175884 1.725664 -3.031924 78.751869 1.762958 -1.456210 21.454551 0.003098 0.000001 177.778185 -0.305999 -165.487205 -33.020908 -4.567867 2.224835 90.116567 0.318537 11.242749 21.454560 -0.003117 -0.000016 6.238698 1.131417 1.806330 2.500345 2.224418 3.636785 2.182673 2.246459 3.623305 -7.522189 -7.775458 2.111881 -17.293510 -1.923972 0.610066 -152.198908 -79.258799 -29.783081 10.728661 59.497764 55.746686 -36.296943 -10.948470 1.101343 8.933349 -5.802962 1.587415 165.459967 74.327314 -13.510006 -1.554275 -58.007547 -27.340552 -38.373908 13.470543 -1.344075 7.751135 1.046938 14.277169 
48.629681 88.951759 -36.141129 85.591778 -6.147426 83.165893 141.351462 -2.169297 172.185162 -21.131533 1.343249 -4.516481 78.244270 2.517549 -2.596892 21.454551 0.003108 0.000005 -177.551519 -0.459398 -167.220202 -28.882220 -4.107044 1.566047 84.770455 1.519247 12.368492 21.454560 -0.003113 -0.000018 6.042389 1.172313 2.347851 2.119799 2.302663 4.717101 1.802606 2.331215 4.703158 -9.172219 -8.129688 2.040319 -16.990690 -0.484806 -0.219978 -147.564816 -79.051155 -34.500966 21.455159 56.810327 66.478689 -37.565658 -10.839614 1.124309 8.863793 -3.390667 2.782296 160.038955 74.325722 -19.053957 -7.291820 -56.178128 -37.653685 -43.832001 13.037476 -1.462267 7.723218 0.337110 8.583714 
48.869061 88.437500 -30.214121 85.373465 -6.240870 80.980109 142.251626 -2.625298 175.261438 -17.133188 0.906873 -7.716288 78.994908 4.948112 -1.920474 21.454551 0.003089 -0.000000 -174.717304 0.818602 -168.907778 -28.831123 -3.782838 0.523501 80.187261 3.014136 13.375439 21.454558 -0.003115 -0.000017 5.886133 1.106979 2.791318 1.812910 2.171667 5.600026 1.496204 2.205520 5.586868 -9.805981 -7.831968 2.020983 -16.647736 1.002166 -0.735195 -139.264265 -79.465481 -42.916309 32.166902 53.487191 77.796497 -39.882847 -11.636928 1.234509 8.427689 -3.721028 3.009947 156.369026 74.444629 -22.795053 -13.731888 -54.476937 -41.857172 -51.139119 13.320599 -1.705644 5.556562 0.411533 -0.707807 
49.411888 87.508743 -24.391310 86.012074 -5.170661 78.180907 143.333118 -2.895798 175.851266 -20.563931 -0.080052 -9.906714 77.234195 6.830680 -0.619426 21.454551 0.003091 -0.000000 -173.205428 4.698502 -167.481989 -32.598843 -4.139454 -2.648657 75.299789 6.009115 13.651839 21.454562 -0.003110 -0.000014 5.887080 0.834452 3.017500 1.804432 1.623443 6.047780 1.488122 1.659996 6.037916 -8.302554 -5.827856 2.247408 -16.777180 1.978171 -0.164081 -126.845615 -80.346384 -55.452916 42.898465 49.535411 86.224711 -42.968112 -11.513141 1.308716 7.245152 -3.258889 3.236828 155.504037 73.604905 -23.724978 -20.442766 -51.251810 -41.902579 -59.115909 13.284203 -1.981682 4.636183 -0.381393 -6.924628 
